<?xml version="1.0" standalone="no"?>
<!DOCTYPE svg PUBLIC "-//W3C//DTD SVG 20010904//EN"
 "http://www.w3.org/TR/2001/REC-SVG-20010904/DTD/svg10.dtd">
<svg version="1.0" xmlns="http://www.w3.org/2000/svg"
 width="512.000000pt" height="512.000000pt" viewBox="0 0 512.000000 512.000000"
 preserveAspectRatio="xMidYMid meet">
<metadata>
Created by potrace 1.14, written by Peter Selinger 2001-2017
</metadata>
<g transform="translate(0.000000,512.000000) scale(0.100000,-0.100000)"
fill="#000000" stroke="none">
<path d="M3809 5115 c-2 -1 -31 -6 -64 -9 -199 -22 -439 -132 -606 -278 -96
-82 -1047 -1041 -1093 -1101 -82 -106 -159 -256 -196 -384 -10 -32 -19 -43
-39 -48 -110 -25 -316 -130 -414 -211 -78 -63 -1086 -1077 -1142 -1149 -125
-160 -212 -360 -242 -560 -9 -65 -9 -274 0 -345 9 -66 35 -177 48 -205 5 -11
16 -40 24 -65 22 -61 98 -202 148 -269 62 -85 213 -231 293 -284 225 -148 441
-210 709 -202 191 5 329 37 487 115 180 88 220 123 790 692 309 309 561 569
593 613 73 99 131 207 170 319 l32 91 79 28 c260 91 293 118 917 742 360 359
551 557 589 612 313 437 302 1015 -27 1443 -36 47 -94 106 -164 170 -132 119
-356 228 -551 267 -65 13 -332 27 -341 18z m289 -624 c92 -28 192 -92 256
-163 70 -77 98 -124 132 -224 38 -112 38 -254 0 -368 -15 -43 -39 -100 -53
-125 -16 -28 -224 -245 -532 -554 -454 -456 -571 -567 -598 -567 -4 0 -16 26
-27 58 -46 142 -162 329 -266 431 -161 158 -291 238 -518 316 -9 4 -5 17 16
47 37 54 989 1007 1057 1059 65 49 147 86 227 104 83 18 226 11 306 -14z
m-2248 -1849 c0 -10 4 -22 8 -27 5 -6 15 -30 23 -55 18 -59 97 -205 151 -278
64 -88 205 -223 291 -280 84 -56 190 -109 275 -138 28 -10 52 -24 52 -30 0
-26 -99 -130 -586 -615 -310 -308 -527 -516 -555 -532 -25 -14 -82 -38 -125
-53 -66 -22 -97 -27 -184 -27 -91 0 -116 4 -190 29 -47 17 -112 47 -143 68
-121 81 -222 227 -251 366 -18 81 -13 226 10 300 16 53 60 150 73 160 3 3 18
21 32 40 40 53 1029 1039 1069 1066 43 28 50 29 50 6z"/>
</g>
</svg>
